HIERARCHY
ROOT mixamorig:Hips
{
	OFFSET 0.000000 201.639420 0.000000
	CHANNELS 6 Xposition Yposition Zposition Xrotation Yrotation Zrotation
	JOINT mixamorig:Spine
	{
		OFFSET 0.006200 19.524994 -2.481800
		CHANNELS 3 Xrotation Yrotation Zrotation
		JOINT mixamorig:Spine1
		{
			OFFSET -0.000900 22.835007 -2.825400
			CHANNELS 3 Xrotation Yrotation Zrotation
			JOINT mixamorig:Spine2
			{
				OFFSET -0.020600 26.552490 -3.193300
				CHANNELS 3 Xrotation Yrotation Zrotation
				JOINT mixamorig:Neck
				{
					OFFSET -0.060000 30.701813 1.352200
					CHANNELS 3 Xrotation Yrotation Zrotation
					JOINT mixamorig:Head
					{
						OFFSET -0.087200 22.547607 3.670900
						CHANNELS 3 Xrotation Yrotation Zrotation
						JOINT mixamorig:HeadTop_End
						{
							OFFSET -0.830600 40.355194 7.893500
							CHANNELS 3 Xrotation Yrotation Zrotation
							End Site
							{
								OFFSET 0.000000 30.592346 0.000000
							}
						}
						JOINT mixamorig:RightEye
						{
							OFFSET -6.302100 18.118591 16.197100
							CHANNELS 3 Xrotation Yrotation Zrotation
							End Site
							{
								OFFSET 0.000000 30.592346 0.000000
							}
						}
						JOINT mixamorig:LeftEye
						{
							OFFSET 6.741500 18.382690 16.401899
							CHANNELS 3 Xrotation Yrotation Zrotation
							End Site
							{
								OFFSET 0.000000 30.592346 0.000000
							}
						}
					}
				}
				JOINT mixamorig:LeftShoulder
				{
					OFFSET 11.924900 18.230499 1.425400
					CHANNELS 3 Xrotation Yrotation Zrotation
					JOINT mixamorig:LeftArm
					{
						OFFSET 25.435989 -0.697632 -5.229300
						CHANNELS 3 Xrotation Yrotation Zrotation
						JOINT mixamorig:LeftForeArm
						{
							OFFSET 54.684776 0.000000 0.000000
							CHANNELS 3 Xrotation Yrotation Zrotation
							JOINT mixamorig:LeftHand
							{
								OFFSET 55.098175 0.000000 0.000000
								CHANNELS 3 Xrotation Yrotation Zrotation
								JOINT mixamorig:LeftHandMiddle1
								{
									OFFSET 23.369751 0.000000 0.000000
									CHANNELS 3 Xrotation Yrotation Zrotation
									JOINT mixamorig:LeftHandMiddle2
									{
										OFFSET 6.378677 0.000000 0.000000
										CHANNELS 3 Xrotation Yrotation Zrotation
										JOINT mixamorig:LeftHandMiddle3
										{
											OFFSET 6.148331 0.000000 0.000000
											CHANNELS 3 Xrotation Yrotation Zrotation
											JOINT mixamorig:LeftHandMiddle4
											{
												OFFSET 6.582504 0.000000 0.000000
												CHANNELS 3 Xrotation Yrotation Zrotation
												End Site
												{
													OFFSET -1.168900 6.395691 1.028606
												}
											}
										}
									}
								}
								JOINT mixamorig:LeftHandThumb1
								{
									OFFSET 7.235672 -3.848206 5.434273
									CHANNELS 3 Xrotation Yrotation Zrotation
									JOINT mixamorig:LeftHandThumb2
									{
										OFFSET 6.568451 -3.792297 3.792300
										CHANNELS 3 Xrotation Yrotation Zrotation
										JOINT mixamorig:LeftHandThumb3
										{
											OFFSET 6.063080 -3.500519 3.500518
											CHANNELS 3 Xrotation Yrotation Zrotation
											JOINT mixamorig:LeftHandThumb4
											{
												OFFSET 4.793182 -2.767334 2.767349
												CHANNELS 3 Xrotation Yrotation Zrotation
												End Site
												{
													OFFSET 0.101639 6.054260 1.275483
												}
											}
										}
									}
								}
								JOINT mixamorig:LeftHandIndex1
								{
									OFFSET 23.101074 -0.309540 4.992809
									CHANNELS 3 Xrotation Yrotation Zrotation
									JOINT mixamorig:LeftHandIndex2
									{
										OFFSET 6.226883 0.000000 0.000000
										CHANNELS 3 Xrotation Yrotation Zrotation
										JOINT mixamorig:LeftHandIndex3
										{
											OFFSET 6.094330 0.000000 0.000000
											CHANNELS 3 Xrotation Yrotation Zrotation
											JOINT mixamorig:LeftHandIndex4
											{
												OFFSET 5.482605 0.000000 0.000000
												CHANNELS 3 Xrotation Yrotation Zrotation
												End Site
												{
													OFFSET -1.427902 5.233032 0.797164
												}
											}
										}
									}
								}
								JOINT mixamorig:LeftHandRing1
								{
									OFFSET 22.299240 0.021149 -3.964172
									CHANNELS 3 Xrotation Yrotation Zrotation
									JOINT mixamorig:LeftHandRing2
									{
										OFFSET 6.321869 0.000000 0.000000
										CHANNELS 3 Xrotation Yrotation Zrotation
										JOINT mixamorig:LeftHandRing3
										{
											OFFSET 5.899796 0.000000 0.000000
											CHANNELS 3 Xrotation Yrotation Zrotation
											JOINT mixamorig:LeftHandRing4
											{
												OFFSET 6.517899 0.000000 0.000000
												CHANNELS 3 Xrotation Yrotation Zrotation
												End Site
												{
													OFFSET -1.637299 6.232208 0.980890
												}
											}
										}
									}
								}
								JOINT mixamorig:LeftHandPinky1
								{
									OFFSET 20.463791 -0.302338 -8.562233
									CHANNELS 3 Xrotation Yrotation Zrotation
									JOINT mixamorig:LeftHandPinky2
									{
										OFFSET 6.908646 0.000000 0.000000
										CHANNELS 3 Xrotation Yrotation Zrotation
										JOINT mixamorig:LeftHandPinky3
										{
											OFFSET 4.622849 0.000000 0.000000
											CHANNELS 3 Xrotation Yrotation Zrotation
											JOINT mixamorig:LeftHandPinky4
											{
												OFFSET 5.216080 0.000000 0.000000
												CHANNELS 3 Xrotation Yrotation Zrotation
												End Site
												{
													OFFSET -0.606308 5.116241 0.814926
												}
											}
										}
									}
								}
							}
						}
					}
				}
				JOINT mixamorig:RightShoulder
				{
					OFFSET -12.001300 18.284088 1.348900
					CHANNELS 3 Xrotation Yrotation Zrotation
					JOINT mixamorig:RightArm
					{
						OFFSET -25.308500 -0.751312 -5.164599
						CHANNELS 3 Xrotation Yrotation Zrotation
						JOINT mixamorig:RightForeArm
						{
							OFFSET -54.684429 0.000000 0.000000
							CHANNELS 3 Xrotation Yrotation Zrotation
							JOINT mixamorig:RightHand
							{
								OFFSET -55.150291 0.000000 0.000000
								CHANNELS 3 Xrotation Yrotation Zrotation
								JOINT mixamorig:RightHandMiddle1
								{
									OFFSET -23.317566 0.000000 0.000000
									CHANNELS 3 Xrotation Yrotation Zrotation
									JOINT mixamorig:RightHandMiddle2
									{
										OFFSET -6.378403 0.000000 0.000000
										CHANNELS 3 Xrotation Yrotation Zrotation
										JOINT mixamorig:RightHandMiddle3
										{
											OFFSET -6.148193 0.000000 0.000000
											CHANNELS 3 Xrotation Yrotation Zrotation
											JOINT mixamorig:RightHandMiddle4
											{
												OFFSET -6.583389 0.000000 0.000000
												CHANNELS 3 Xrotation Yrotation Zrotation
												End Site
												{
													OFFSET 1.171692 6.395905 1.029786
												}
											}
										}
									}
								}
								JOINT mixamorig:RightHandThumb1
								{
									OFFSET -7.190521 -3.860474 5.435846
									CHANNELS 3 Xrotation Yrotation Zrotation
									JOINT mixamorig:RightHandThumb2
									{
										OFFSET -6.567429 -3.791718 3.791708
										CHANNELS 3 Xrotation Yrotation Zrotation
										JOINT mixamorig:RightHandThumb3
										{
											OFFSET -6.062469 -3.500153 3.500166
											CHANNELS 3 Xrotation Yrotation Zrotation
											JOINT mixamorig:RightHandThumb4
											{
												OFFSET -4.792618 -2.767029 2.767022
												CHANNELS 3 Xrotation Yrotation Zrotation
												End Site
												{
													OFFSET -0.100327 6.053253 1.276754
												}
											}
										}
									}
								}
								JOINT mixamorig:RightHandIndex1
								{
									OFFSET -23.048981 -0.310791 4.992554
									CHANNELS 3 Xrotation Yrotation Zrotation
									JOINT mixamorig:RightHandIndex2
									{
										OFFSET -6.227539 0.000000 0.000000
										CHANNELS 3 Xrotation Yrotation Zrotation
										JOINT mixamorig:RightHandIndex3
										{
											OFFSET -6.095047 0.000000 0.000000
											CHANNELS 3 Xrotation Yrotation Zrotation
											JOINT mixamorig:RightHandIndex4
											{
												OFFSET -5.484772 0.000000 0.000000
												CHANNELS 3 Xrotation Yrotation Zrotation
												End Site
												{
													OFFSET 1.420593 5.237305 0.797056
												}
											}
										}
									}
								}
								JOINT mixamorig:RightHandRing1
								{
									OFFSET -22.246323 0.020569 -3.963762
									CHANNELS 3 Xrotation Yrotation Zrotation
									JOINT mixamorig:RightHandRing2
									{
										OFFSET -6.322128 0.000000 0.000000
										CHANNELS 3 Xrotation Yrotation Zrotation
										JOINT mixamorig:RightHandRing3
										{
											OFFSET -5.900024 0.000000 0.000000
											CHANNELS 3 Xrotation Yrotation Zrotation
											JOINT mixamorig:RightHandRing4
											{
												OFFSET -6.518356 0.000000 0.000000
												CHANNELS 3 Xrotation Yrotation Zrotation
												End Site
												{
													OFFSET 1.636398 6.232697 0.982186
												}
											}
										}
									}
								}
								JOINT mixamorig:RightHandPinky1
								{
									OFFSET -20.411011 -0.303314 -8.561701
									CHANNELS 3 Xrotation Yrotation Zrotation
									JOINT mixamorig:RightHandPinky2
									{
										OFFSET -6.907349 0.000000 0.000000
										CHANNELS 3 Xrotation Yrotation Zrotation
										JOINT mixamorig:RightHandPinky3
										{
											OFFSET -4.623840 0.000000 0.000000
											CHANNELS 3 Xrotation Yrotation Zrotation
											JOINT mixamorig:RightHandPinky4
											{
												OFFSET -5.218353 0.000000 0.000000
												CHANNELS 3 Xrotation Yrotation Zrotation
												End Site
												{
													OFFSET 0.602097 5.118835 0.816273
												}
											}
										}
									}
								}
							}
						}
					}
				}
			}
		}
	}
	JOINT mixamorig:LeftUpLeg
	{
		OFFSET 18.168400 -13.561905 -0.039000
		CHANNELS 3 Xrotation Yrotation Zrotation
		JOINT mixamorig:LeftLeg
		{
			OFFSET 0.577358 -80.825211 -3.695000
			CHANNELS 3 Xrotation Yrotation Zrotation
			JOINT mixamorig:LeftFoot
			{
				OFFSET -0.577356 -83.370262 -6.520700
				CHANNELS 3 Xrotation Yrotation Zrotation
				JOINT mixamorig:LeftToeBase
				{
					OFFSET 0.750401 -20.798306 25.135401
					CHANNELS 3 Xrotation Yrotation Zrotation
					JOINT mixamorig:LeftToe_End
					{
						OFFSET -0.000500 0.001200 19.917799
						CHANNELS 3 Xrotation Yrotation Zrotation
						End Site
						{
							OFFSET 0.000000 19.917805 0.000000
						}
					}
				}
			}
		}
	}
	JOINT mixamorig:RightUpLeg
	{
		OFFSET -18.162500 -13.585098 -0.041000
		CHANNELS 3 Xrotation Yrotation Zrotation
		JOINT mixamorig:RightLeg
		{
			OFFSET -0.595024 -80.945297 -3.631900
			CHANNELS 3 Xrotation Yrotation Zrotation
			JOINT mixamorig:RightFoot
			{
				OFFSET 0.595024 -83.218193 -6.561200
				CHANNELS 3 Xrotation Yrotation Zrotation
				JOINT mixamorig:RightToeBase
				{
					OFFSET -0.753601 -20.807106 25.115000
					CHANNELS 3 Xrotation Yrotation Zrotation
					JOINT mixamorig:RightToe_End
					{
						OFFSET 0.000299 0.001700 19.918200
						CHANNELS 3 Xrotation Yrotation Zrotation
						End Site
						{
							OFFSET 0.000000 19.918203 0.000000
						}
					}
				}
			}
		}
	}
}
MOTION
Frames: 4
Frame Time: 0.033333
-0.067266 192.782135 -17.870850 15.196674 -2.224251 0.323099 12.042617 1.110792 -0.816411 8.862785 1.149257 -0.183897 8.872370 1.072165 -0.200311 -12.013759 0.663664 -0.245378 -43.199990 3.802516 -1.609839 0.000000 -0.000000 0.000000 0.000000 -0.000000 0.000000 0.000000 -0.000000 0.000000 1.816663 -2.054265 -6.347405 -24.053490 -27.985770 -63.583174 0.000038 -109.493397 0.000025 2.261810 16.120211 9.593304 0.214499 1.708554 -14.310070 0.124828 1.307777 -10.904471 0.031179 0.655915 -5.443521 -0.000001 0.000001 -0.000001 0.457010 20.383716 9.392284 8.027485 14.204812 -4.167742 1.388938 4.779878 0.411836 -0.000001 0.000001 -0.000000 0.214976 1.710410 -14.326074 0.124461 1.305875 -10.888469 0.031167 0.655924 -5.443535 0.000001 0.000002 0.000004 0.214972 1.710414 -14.326067 0.124467 1.305881 -10.888477 0.031184 0.655920 -5.443526 -0.000002 -0.000002 -0.000001 1.204686 5.642603 -13.879141 0.118155 -2.749522 -11.390026 0.031183 0.655915 -5.443528 0.000001 -0.000001 -0.000000 -0.437529 -3.928668 -3.998594 -20.775646 25.828673 69.408970 -0.000055 113.296610 0.000058 1.132203 -20.313881 -6.368930 0.238986 -1.810786 15.035463 0.733120 -3.112577 26.500540 0.185565 -1.598823 13.240311 0.000000 0.000001 -0.000002 3.343607 -18.221101 -2.965855 12.237502 -18.165339 1.505012 2.362366 -4.713314 -1.929243 0.000002 -0.000000 -0.000004 0.238990 -1.810784 15.035473 0.733113 -3.112556 26.500545 0.185576 -1.598827 13.240305 0.000002 0.000001 0.000000 0.238986 -1.810787 15.035471 0.733105 -3.112567 26.500548 0.185572 -1.598838 13.240295 0.000002 0.000000 0.000000 0.238986 -1.810777 15.035471 0.733106 -3.112566 26.500547 0.185568 -1.598826 13.240307 -0.000002 0.000002 0.000001 -44.751208 10.094420 10.701154 29.414268 9.854781 0.637853 0.964741 6.867522 -3.068734 -0.001936 -0.000007 -0.003728 -0.000000 -0.000001 -0.000000 -46.878194 -22.970379 -9.585339 28.335082 -10.075387 -8.874979 -0.595512 -2.055894 7.214058 -0.000000 0.000006 0.000003 -0.000000 -0.000001 -0.000000 
-0.167456 192.720535 -18.122253 15.288748 -2.171042 0.348172 12.151679 1.154269 -0.761128 8.952002 1.186234 -0.139361 8.961912 1.108493 -0.156293 -12.286285 0.657910 -0.253948 -43.328773 3.809786 -1.751913 0.000000 -0.000000 -0.000000 0.000000 -0.000000 -0.000000 0.000000 -0.000000 -0.000000 1.828253 -2.094977 -6.506041 -24.002454 -27.643700 -63.670142 -0.000072 -109.754317 -0.000068 1.724334 15.909566 9.336058 0.214497 1.708555 -14.310068 0.124830 1.307779 -10.904476 0.031177 0.655918 -5.443517 -0.000002 -0.000002 0.000004 0.457007 20.383713 9.392283 8.027483 14.204814 -4.167741 1.388932 4.779880 0.411833 -0.000001 0.000002 -0.000001 0.214974 1.710413 -14.326074 0.124463 1.305878 -10.888472 0.031167 0.655923 -5.443531 -0.000002 -0.000001 0.000001 0.214968 1.710415 -14.326071 0.124462 1.305882 -10.888478 0.031189 0.655926 -5.443519 -0.000003 -0.000000 -0.000001 1.204684 5.642605 -13.879143 0.118152 -2.749519 -11.390032 0.031182 0.655913 -5.443532 -0.000002 0.000001 0.000001 -0.481129 -4.020237 -4.093650 -20.903463 25.648288 69.701350 0.000047 113.329490 -0.000053 0.511348 -20.080915 -6.855629 0.238982 -1.810787 15.035466 0.733117 -3.112572 26.500536 0.185563 -1.598824 13.240312 0.000002 -0.000003 -0.000002 3.343611 -18.221107 -2.965853 12.237501 -18.165341 1.505011 2.362364 -4.713314 -1.929242 0.000002 -0.000001 0.000000 0.238990 -1.810788 15.035482 0.733103 -3.112556 26.500538 0.185576 -1.598824 13.240301 -0.000000 -0.000001 -0.000002 0.238985 -1.810787 15.035478 0.733107 -3.112567 26.500548 0.185571 -1.598833 13.240293 -0.000001 0.000001 -0.000001 0.238988 -1.810780 15.035478 0.733109 -3.112568 26.500548 0.185567 -1.598823 13.240309 0.000001 -0.000002 0.000002 -44.918469 9.913481 10.626662 29.412926 9.856556 0.628100 1.084224 6.999810 -3.020218 -0.002025 0.000009 -0.003874 -0.000000 0.000000 0.000000 -47.091272 -22.907160 -9.565583 28.409931 -10.074119 -8.899644 -0.565325 -2.165089 7.152262 -0.000000 0.000004 0.000003 -0.000000 -0.000004 0.000000 
-0.259358 192.659317 -18.372395 15.374105 -2.122543 0.369738 12.263916 1.194743 -0.703507 9.043958 1.220111 -0.094161 9.054191 1.141667 -0.111502 -12.560659 0.656193 -0.273808 -43.484293 3.821294 -1.882549 -0.000000 0.000000 0.000000 -0.000000 0.000000 0.000000 -0.000000 0.000000 0.000000 1.838352 -2.130279 -6.689642 -23.939714 -27.320757 -63.727338 0.000053 -110.013802 0.000063 1.165196 15.709768 9.099260 0.214498 1.708556 -14.310069 0.124831 1.307776 -10.904473 0.031178 0.655916 -5.443524 -0.000001 -0.000002 0.000004 0.457014 20.383716 9.392282 8.027484 14.204813 -4.167746 1.388928 4.779878 0.411834 -0.000002 0.000003 -0.000003 0.214977 1.710411 -14.326078 0.124461 1.305875 -10.888470 0.031168 0.655923 -5.443535 -0.000002 0.000001 -0.000000 0.214974 1.710413 -14.326071 0.124464 1.305880 -10.888478 0.031185 0.655921 -5.443523 0.000001 -0.000002 -0.000000 1.204686 5.642605 -13.879144 0.118151 -2.749520 -11.390033 0.031179 0.655914 -5.443532 0.000000 -0.000000 -0.000000 -0.519245 -4.096815 -4.188203 -21.028942 25.470925 69.984085 0.000000 113.359427 0.000015 -0.101258 -19.833042 -7.344901 0.238985 -1.810787 15.035464 0.733116 -3.112567 26.500533 0.185562 -1.598819 13.240308 0.000001 0.000002 0.000000 3.343605 -18.221102 -2.965855 12.237509 -18.165347 1.505018 2.362366 -4.713312 -1.929246 -0.000002 0.000003 -0.000003 0.238990 -1.810786 15.035471 0.733112 -3.112555 26.500538 0.185578 -1.598825 13.240308 -0.000000 0.000003 -0.000002 0.238985 -1.810785 15.035471 0.733104 -3.112565 26.500545 0.185573 -1.598838 13.240295 -0.000001 -0.000001 0.000001 0.238989 -1.810779 15.035466 0.733111 -3.112569 26.500543 0.185570 -1.598826 13.240308 0.000002 0.000001 0.000002 -45.082363 9.750186 10.550955 29.410436 9.858997 0.639078 1.202063 7.119227 -2.984584 -0.002086 0.000007 -0.004018 -0.000000 0.000000 0.000000 -47.294634 -22.848219 -9.545403 28.480822 -10.073519 -8.921309 -0.537504 -2.265025 7.087376 -0.000000 0.000006 0.000003 -0.000000 -0.000001 0.000000 
-0.347178 192.599411 -18.618484 15.453233 -2.081106 0.395419 12.378596 1.228027 -0.643575 9.138173 1.247706 -0.048280 9.148647 1.168465 -0.065822 -12.831164 0.660844 -0.310761 -43.674016 3.842059 -1.999247 -0.000001 0.000000 0.000000 -0.000001 0.000000 0.000000 -0.000001 0.000000 0.000000 1.847400 -2.161598 -6.896168 -23.870803 -27.016991 -63.760745 0.000074 -110.275904 0.000061 0.596174 15.529970 8.882320 0.214496 1.708555 -14.310068 0.124833 1.307778 -10.904475 0.031177 0.655916 -5.443526 -0.000002 -0.000003 0.000003 0.457011 20.383718 9.392284 8.027483 14.204811 -4.167745 1.388937 4.779874 0.411835 0.000002 -0.000002 0.000001 0.214973 1.710411 -14.326078 0.124462 1.305877 -10.888470 0.031166 0.655923 -5.443541 -0.000000 0.000001 0.000004 0.214970 1.710413 -14.326069 0.124465 1.305882 -10.888478 0.031186 0.655922 -5.443525 -0.000001 0.000001 0.000000 1.204685 5.642603 -13.879143 0.118151 -2.749519 -11.390025 0.031183 0.655913 -5.443532 -0.000002 0.000001 0.000000 -0.547375 -4.148746 -4.275890 -21.153007 25.293666 70.248140 0.000030 113.395101 -0.000010 -0.694906 -19.577148 -7.842804 0.238988 -1.810786 15.035463 0.733117 -3.112571 26.500538 0.185565 -1.598820 13.240311 0.000000 0.000002 0.000002 3.343606 -18.221097 -2.965856 12.237503 -18.165342 1.505017 2.362368 -4.713312 -1.929242 0.000000 0.000003 -0.000003 0.238992 -1.810784 15.035473 0.733105 -3.112557 26.500533 0.185575 -1.598826 13.240302 0.000002 0.000001 -0.000002 0.238989 -1.810787 15.035473 0.733104 -3.112564 26.500547 0.185571 -1.598838 13.240295 -0.000002 0.000002 -0.000001 0.238990 -1.810779 15.035470 0.733103 -3.112569 26.500547 0.185570 -1.598826 13.240309 0.000000 0.000001 0.000002 -45.232388 9.585696 10.470152 29.402311 9.861796 0.653948 1.320146 7.248865 -2.962233 -0.002133 0.000005 -0.004093 -0.000000 -0.000001 0.000000 -47.491770 -22.781797 -9.529663 28.554260 -10.073451 -8.935795 -0.513525 -2.359383 7.020625 -0.000000 0.000006 0.000003 -0.000000 -0.000001 0.000000 
